<svg width="356" height="85" viewBox="0 0 356 85" fill="none" xmlns="http://www.w3.org/2000/svg">
<path d="M68.9574 0.445625C67.1887 0.567245 64.2088 0.746841 62.3354 0.844696C55.6655 1.19309 51.5416 1.44682 50.9837 1.54314C50.6725 1.59689 49.4389 1.70827 48.2424 1.79063C47.046 1.87299 45.7702 2.00356 45.4074 2.08076C45.0446 2.15797 44.1945 2.26141 43.5184 2.31064C41.2881 2.473 39.2389 2.78599 37.6157 3.21217C36.9866 3.37734 36.387 3.46253 36.2832 3.40147C36.1794 3.34039 36.1525 3.37984 36.2233 3.48914C36.3105 3.62364 35.6807 3.71253 34.274 3.76427C33.1311 3.80632 32.0699 3.8933 31.9157 3.95754C31.7616 4.02179 31.5874 4.3751 31.5286 4.74268C31.407 5.50272 31.2079 5.61972 29.3998 5.99349C28.7259 6.1328 27.6674 6.42652 27.0477 6.64621C26.4279 6.86589 25.697 7.0949 25.4234 7.15513C24.6423 7.32709 24.6561 7.74934 25.4692 8.55246C26.3242 9.397 26.9983 9.7487 28.3701 10.066C29.2596 10.2718 30.4768 11.1248 30.4875 11.55C30.4911 11.6928 29.6759 11.9703 28.5149 12.2215C28.2039 12.2888 27.1844 12.4111 26.2494 12.4933C25.3143 12.5755 24.0708 12.7811 23.486 12.9501C22.836 13.1379 21.5292 13.2803 20.1243 13.3164C17.6291 13.3805 16.5622 13.6788 16.4047 14.3562C16.3513 14.5857 15.8856 14.9488 15.2207 15.2794C14.6179 15.5792 14.1702 15.8947 14.2259 15.9806C14.2815 16.0665 14.2152 16.1006 14.0784 16.0563C13.4639 15.8575 12.5491 16.2959 12.2252 16.9442C11.8722 17.6508 12.0384 18.3024 12.5683 18.2888C12.7209 18.2849 12.848 18.3461 12.8508 18.4249C12.8536 18.5036 13.4311 18.5781 14.134 18.5903C14.837 18.6025 15.4426 18.6945 15.4799 18.7947C15.5172 18.8948 15.7059 18.9727 15.8994 18.9677C16.0929 18.9627 16.306 19.0433 16.3731 19.1467C16.4401 19.2501 16.5801 19.3325 16.6843 19.3298C16.7884 19.3273 16.8303 19.258 16.7772 19.1762C16.7242 19.0944 16.9306 19.0244 17.2358 19.0206C17.5636 19.0166 17.7935 19.1164 17.7972 19.2643C17.8007 19.402 17.8874 19.4594 17.9899 19.3918C18.0924 19.3242 18.1783 19.3507 18.1809 19.4507C18.1883 19.7454 17.6954 19.8657 16.8237 19.7819C16.3751 19.7388 15.6271 19.8112 15.1615 19.9428C14.6958 20.0744 14.1876 20.2104 14.0322 20.2449C13.8767 20.2795 13.6008 20.3762 13.419 20.4599C13.2371 20.5436 12.9182 20.5718 12.7101 20.5226C12.2264 20.4082 12.0679 20.6724 12.4419 20.9696C12.6003 21.0954 12.7293 21.1234 12.7285 21.0317C12.7278 20.94 12.792 20.9493 12.8712 21.0524C13.1147 21.3694 13.8798 21.7154 13.8746 21.506C13.8717 21.4001 13.9599 21.3111 14.0702 21.3083C14.1805 21.3054 14.2309 21.3721 14.1821 21.4564C14.0563 21.674 15.5767 21.6692 15.9576 21.4509C16.161 21.3343 16.3527 21.3451 16.4948 21.4813C16.7499 21.7258 17.5132 21.8069 17.3618 21.5734C17.1854 21.3013 17.7945 21.3916 18.039 21.6738C18.2131 21.8747 18.3929 21.8946 18.7397 21.7513C19.3391 21.5037 19.5428 21.5041 19.1864 21.7521C18.9771 21.8978 19.0731 21.9385 19.5695 21.9143C19.9338 21.8965 20.8735 21.9628 21.6576 22.0617C22.4417 22.1605 23.3115 22.2471 23.5903 22.254C24.4195 22.2747 24.1972 22.9186 23.0908 23.7013C22.4587 24.1484 22.1597 24.4813 22.2319 24.6575C22.3025 24.8297 22.4191 24.8633 22.5529 24.75C22.6686 24.6523 22.9354 24.6372 23.1458 24.7165C23.3562 24.7958 23.8462 24.8586 24.2345 24.856C24.7811 24.8524 25.0178 24.9638 25.2822 25.3491C25.7117 25.9749 25.7736 26.3294 25.5365 26.8051C25.4336 27.0116 25.4263 27.1297 25.5205 27.0677C25.6146 27.0056 25.8123 27.2697 25.9599 27.6545C26.1074 28.0393 26.3242 28.4149 26.4417 28.4891C26.5592 28.5633 26.3145 28.6354 25.898 28.6493C25.3386 28.668 25.2161 28.7211 25.4294 28.8525C25.6483 28.9874 25.5688 29.0349 25.1002 29.0492C24.7603 29.0595 24.3362 29.1496 24.1578 29.2493C23.9793 29.349 23.0505 29.7686 22.0937 30.1817C20.175 31.0101 19.0589 31.2163 14.9796 31.4964C11.8534 31.7111 11.5022 31.7591 11.0122 32.0389C10.5135 32.3237 7.93547 32.7846 6.2981 32.8816C5.43984 32.9324 4.67684 33.1068 4.13039 33.3771C3.66658 33.6064 2.863 33.8629 2.34465 33.947C1.31382 34.1143 -0.00574836 34.6237 1.88387e-05 34.8521C0.00215484 34.9314 0.497739 35.1459 1.10161 35.3287C2.02958 35.6096 2.81528 35.6475 6.17658 35.5728C8.8616 35.5131 10.3899 35.5575 10.8811 35.7094C11.5904 35.9287 12.2698 35.8781 14.0015 35.4768C14.4479 35.3734 15.7175 35.2498 16.8228 35.2023C17.9281 35.1547 18.9946 35.0228 19.1929 34.9091C19.4049 34.7875 19.8392 34.7549 20.2472 34.8298C20.6289 34.8999 21.0159 34.937 21.1073 34.9123C21.4451 34.821 27.2112 34.7325 27.8536 34.8088C28.9428 34.938 30.3096 35.0171 32.1931 35.0597C33.1699 35.0819 34.0637 35.1906 34.1793 35.3015C34.3848 35.4985 34.0379 35.6077 33.4147 35.5423C33.2841 35.5286 33.1797 35.6163 33.1828 35.7372C33.186 35.8581 33.0655 35.9131 32.9155 35.8594C32.7654 35.8057 32.5406 35.8923 32.416 36.0519C32.2339 36.285 32.1574 36.2941 32.0272 36.0983C31.8951 35.8996 31.8657 35.9011 31.8686 36.1062C31.8707 36.2653 31.7398 36.3194 31.5128 36.253C31.2736 36.1832 31.1137 36.2616 31.0342 36.4877C30.9685 36.6745 31.0071 36.8558 31.12 36.8905C31.412 36.9804 31.9002 37.4729 31.9055 37.6829C31.9129 37.9758 31.1723 38.6663 30.9752 38.5503C30.8745 38.491 30.8436 38.5684 30.9067 38.7223C30.9938 38.9349 30.9185 38.9777 30.5928 38.9007C30.2525 38.8202 30.1903 38.8627 30.2906 39.1074C30.4773 39.5632 30.0796 39.7213 29.7546 39.3205C29.5766 39.1008 29.5113 39.078 29.5763 39.2581C29.6908 39.5756 28.818 40.1099 28.4953 39.92C28.3841 39.8546 28.3607 39.8985 28.4409 40.0223C28.5183 40.1417 28.4914 40.2417 28.3811 40.2445C28.2708 40.2474 28.1773 40.1207 28.1733 39.9631C28.1631 39.5587 27.7884 39.6142 27.7825 40.021C27.7783 40.3051 27.7532 40.2985 27.6156 39.9775C27.5265 39.7695 27.4784 39.5521 27.5088 39.4943C27.5392 39.4365 27.3992 39.3809 27.1978 39.3708C26.7548 39.3486 26.7327 39.5001 27.1377 39.7832C27.3731 39.9477 27.2061 39.9864 26.3695 39.9615C25.7381 39.9427 25.3474 40.0018 25.4148 40.1059C25.4782 40.2037 25.3593 40.242 25.1475 40.1919C24.9257 40.1394 24.7684 40.1957 24.7717 40.3262C24.7749 40.4497 24.6761 40.4912 24.5523 40.4184C24.3942 40.3253 24.3732 40.3936 24.4817 40.6478C24.5666 40.8468 24.6585 41.1263 24.6859 41.2688C24.7712 41.7122 25.2565 41.8298 25.8448 41.5495C26.1537 41.4023 26.2998 41.2777 26.1694 41.2725C25.704 41.254 25.932 40.8808 26.4163 40.8684C26.7725 40.8592 26.8822 40.9345 26.8104 41.1388C26.7556 41.2945 26.7978 41.4731 26.9041 41.5357C27.0276 41.6083 27.0114 41.7619 26.8592 41.961C26.6578 42.2244 26.6671 42.2538 26.9193 42.1513C27.0834 42.0845 27.3399 42.1129 27.4894 42.2144C27.704 42.3601 27.6904 42.3779 27.4246 42.2991C27.141 42.2149 27.11 42.2803 27.2275 42.7161C27.3041 43.0005 27.4368 43.2774 27.5225 43.3315C27.8011 43.5076 27.5087 44.2628 27.2041 44.1537C27.0065 44.083 26.9429 44.1603 26.9924 44.4113C27.0441 44.6736 26.961 44.7612 26.6832 44.7375C26.4743 44.7196 26.4117 44.7501 26.544 44.8051C26.6763 44.8602 26.7418 44.9792 26.6896 45.0695C26.6374 45.1598 26.769 45.3503 26.9822 45.4928C27.1953 45.6354 27.3148 45.8102 27.2478 45.8813C27.1808 45.9525 27.2893 46.0078 27.489 46.0043C27.787 45.999 27.8028 46.031 27.5774 46.183C27.3973 46.3045 27.2539 46.2927 27.1605 46.1485C27.0822 46.0277 26.9654 45.9849 26.9009 46.0534C26.7827 46.1789 27.1544 46.9795 27.4102 47.1501C27.6193 47.2896 27.8806 48.1591 27.6775 48.0396C27.5816 47.9832 27.4077 48.1002 27.2911 48.2997C27.1024 48.6224 27.1356 48.657 27.5927 48.614C27.9164 48.5836 28.0911 48.6544 28.065 48.8057C28.0423 48.9377 28.0873 49.0338 28.1651 49.0194C28.5542 48.9472 28.7819 49.0543 28.7884 49.3127C28.7924 49.4703 28.8859 49.5969 28.9962 49.5941C29.1065 49.5912 29.1505 49.6688 29.0941 49.7664C29.0376 49.864 29.0996 49.9846 29.2318 50.0344C29.3768 50.0891 29.3408 50.1344 29.1411 50.1487C28.9591 50.1616 28.8118 50.2382 28.8138 50.3188C28.8159 50.3994 28.5193 50.4589 28.1548 50.451C27.7903 50.4431 27.5413 50.5125 27.6014 50.6052C27.6615 50.698 27.5302 50.7785 27.3097 50.7842C27.0891 50.7899 26.9634 50.8791 27.0304 50.9825C27.0975 51.0859 27.0529 51.173 26.9315 51.1762C26.8046 51.1794 26.7648 51.3138 26.8379 51.4923C26.9442 51.7519 26.9168 51.7644 26.6706 51.5688C26.429 51.3768 26.3774 51.3865 26.3834 51.6224C26.3874 51.7806 26.5622 51.9506 26.7719 52.0002C27.0014 52.0545 27.1572 52.251 27.1633 52.4939C27.1719 52.8337 27.0909 52.882 26.65 52.7996C26.2203 52.7193 26.1857 52.7378 26.4567 52.9024C26.7636 53.0888 26.7591 53.1372 26.3924 53.5851C26.1754 53.8502 25.8711 54.0704 25.7163 54.0744C25.1465 54.089 25.6613 54.2769 26.4275 54.334C26.8889 54.3684 27.1708 54.3197 27.1044 54.2172C27.0418 54.1206 27.0758 54.0394 27.1799 54.0367C27.2841 54.0342 27.4146 54.1018 27.47 54.1872C27.5254 54.2727 27.8514 54.3193 28.1944 54.2909C28.5374 54.2624 28.919 54.3148 29.0423 54.4071C29.1801 54.5103 29.312 54.4964 29.3845 54.3711C29.4644 54.233 29.618 54.2258 29.8603 54.3487C30.0571 54.4485 30.4161 54.5178 30.658 54.5027C31.3302 54.4606 33.6557 54.6101 33.8184 54.7058C33.9451 54.7804 36.0189 54.993 36.6536 54.9965C36.986 54.9982 36.9725 55.8967 36.636 56.1619C36.483 56.2825 36.3449 56.62 36.3291 56.9119C36.3112 57.2415 36.2113 57.4107 36.0653 57.3584C35.9277 57.3092 35.8738 57.3805 35.9352 57.5304C36.0038 57.6978 35.8442 57.8353 35.475 57.9271C34.8541 58.0814 34.4203 58.5097 34.6016 58.7893C34.6669 58.89 34.551 58.9286 34.3359 58.8777C34.0641 58.8135 33.9567 58.8815 33.9626 59.1142C33.9671 59.2938 33.8016 59.4902 33.5946 59.5505C33.1745 59.6729 33.1126 59.9081 33.4485 60.1057C33.5877 60.1876 33.6169 60.1537 33.5268 60.0147C33.4478 59.8927 33.4537 59.8035 33.5399 59.8163C33.9456 59.8767 34.1683 59.7561 34.1613 59.4798C34.1514 59.086 34.6099 59.2271 34.7015 59.646C34.7402 59.823 34.7011 59.9573 34.6143 59.9443C34.0898 59.8658 33.7961 60.0226 33.805 60.3762C33.8104 60.5926 33.8988 60.7142 34.0013 60.6466C34.1038 60.579 34.1922 60.7007 34.1976 60.917C34.2031 61.1333 34.3263 61.3072 34.4714 61.3035C34.6164 61.2998 34.7893 61.4288 34.8554 61.5903C34.9215 61.7517 34.8966 61.8373 34.8001 61.7805C34.7035 61.7236 34.5904 61.7866 34.5487 61.9203C34.5071 62.0541 34.4916 62.0126 34.5143 61.828C34.5371 61.6435 34.4784 61.4945 34.384 61.4969C34.2896 61.4994 34.215 61.6037 34.2181 61.7288C34.2213 61.8539 34.0991 61.7931 33.9466 61.5936C33.7431 61.3274 33.7265 61.1933 33.8841 61.0893C34.0074 61.0081 33.9322 60.9647 33.7075 60.9876C33.3601 61.023 33.1277 61.5292 33.4628 61.5205C33.5366 61.5187 33.6546 61.7736 33.725 62.0872C33.8268 62.54 33.9515 62.6548 34.3313 62.645C34.5942 62.6383 34.8116 62.7187 34.8142 62.8237C34.8167 62.9288 34.9895 63.0104 35.1978 63.005C35.5989 62.9947 35.6999 62.7138 35.372 62.5208C35.0218 62.3148 35.3444 62.0907 35.9397 62.1264C36.7148 62.1729 36.9047 62.3828 36.2095 62.4247C35.6681 62.4573 35.6667 62.4602 36.1345 62.5817L36.6114 62.7054L36.1912 62.9501C35.7071 63.2321 35.6432 63.567 36.0756 63.5559C36.238 63.5517 36.316 63.4637 36.2489 63.3603C36.1819 63.2569 36.2173 63.1699 36.3276 63.1671C36.4379 63.1642 36.5325 63.3339 36.5378 63.544C36.5437 63.7754 36.6737 63.9227 36.8677 63.9178C37.1463 63.9106 37.141 63.9462 36.8272 64.1913C36.5392 64.4163 36.4462 64.4239 36.3656 64.2293C36.3044 64.0813 36.1268 64.0394 35.9134 64.1225C35.5832 64.2512 35.5818 64.2784 35.8909 64.5747C36.0719 64.7482 36.3416 64.8869 36.4904 64.8831C36.7348 64.8768 36.8501 65.1059 36.799 65.4964C36.7887 65.5755 36.9131 65.6368 37.0755 65.6326C37.2378 65.6284 37.3237 65.7063 37.2662 65.8056C37.1303 66.0407 37.4953 66.2542 37.7482 66.0874C37.8818 65.9993 37.8713 65.8751 37.7151 65.6947C37.5507 65.5051 37.5462 65.4294 37.699 65.4254C37.9211 65.4197 37.9871 65.6494 37.9382 66.2579C37.9001 66.7336 38.2639 66.9335 39.1336 66.9147C39.5519 66.9057 39.8266 66.9864 39.8018 67.111C39.7749 67.2463 40.1697 67.315 40.8962 67.3013C41.5212 67.2896 42.1414 67.3616 42.2745 67.4614C42.4075 67.5612 42.7631 67.5864 43.0647 67.5175C43.455 67.4283 43.6865 67.4843 43.8682 67.712C44.0086 67.8879 44.046 67.9688 43.9514 67.8918C43.8567 67.8148 43.548 68.1237 43.2652 68.5784C42.9824 69.033 42.7487 69.3272 42.7459 69.2321C42.743 69.137 42.5742 69.2193 42.3707 69.4147C42.1672 69.6102 42.0057 69.8642 42.0117 69.9792C42.0178 70.0941 42.1058 70.0355 42.2073 69.849C42.3089 69.6624 42.5326 69.5061 42.7044 69.5017C42.9354 69.4958 42.9629 69.551 42.8099 69.7134C42.6961 69.8343 42.6539 70.0576 42.7162 70.2097C42.8088 70.4358 42.8575 70.439 42.9832 70.2273C43.0963 70.0367 43.1385 70.0693 43.1433 70.3505C43.1515 70.8283 42.7214 71.4545 42.5106 71.2717C42.4241 71.1967 42.4183 71.2426 42.4976 71.3737C42.577 71.5047 42.7199 71.5605 42.8154 71.4976C42.9108 71.4346 42.9911 71.4691 42.9937 71.5742C42.9962 71.6792 42.9183 71.8181 42.8203 71.8827C42.5808 72.0406 42.8185 72.5934 43.2546 72.8932C43.4489 73.0268 43.5555 73.2268 43.4914 73.3377C43.4155 73.4688 43.5306 73.4872 43.8212 73.3902C44.1857 73.2685 44.2253 73.2882 44.0371 73.498C43.7572 73.81 43.7486 74.3875 44.0228 74.4719C44.211 74.5299 44.2626 74.8589 44.2039 75.6271C44.1886 75.8269 44.019 75.9676 43.7839 75.9753C43.5572 75.9829 43.4773 76.0459 43.5961 76.1235C43.8945 76.3185 44.0873 76.8903 43.897 77.0158C43.8077 77.0747 43.6937 77.0159 43.6437 76.8851C43.5936 76.7543 43.5042 76.6941 43.4449 76.7512C43.3857 76.8083 43.4157 76.9761 43.5116 77.1241C43.6587 77.3511 43.7457 77.3359 44.0673 77.0269C44.4397 76.6692 44.4492 76.6691 44.4727 77.024C44.4861 77.2255 44.5368 77.28 44.5863 77.1463C44.6356 77.0136 44.7631 76.9029 44.8697 76.9001C44.9763 76.8972 45.0181 77.0243 44.9626 77.1821C44.907 77.34 44.9221 77.4547 44.9961 77.4371C45.0701 77.4195 45.3746 77.4993 45.6729 77.6145C45.9711 77.7297 46.292 77.7733 46.3859 77.7113C46.4798 77.6494 46.5591 77.6948 46.562 77.8123C46.5649 77.9297 46.6455 77.9743 46.7409 77.9114C46.8364 77.8485 46.9667 77.8776 47.0305 77.9761C47.0944 78.0746 47.2941 78.1507 47.4742 78.1452C47.9972 78.1291 48.3232 78.226 49.1963 78.6569C49.6472 78.8794 50.1341 79.0584 50.2785 79.0547C50.4228 79.051 50.5781 79.1517 50.6237 79.2786C50.7122 79.5253 52.4813 79.6002 52.4752 79.3571C52.4734 79.2796 52.7076 79.2759 52.9961 79.349C53.5645 79.4929 54.7684 79.4321 55.6397 79.2154C56.0918 79.103 56.231 79.1591 56.4455 79.5398C56.5881 79.7929 56.6563 80.0838 56.5971 80.1863C56.4443 80.4505 55.1665 80.6638 53.0794 80.7734C52.0906 80.8253 51.096 80.976 50.8691 81.1083C50.6421 81.2406 50.3888 81.3393 50.3061 81.3275C50.2234 81.3158 49.8464 81.3243 49.4683 81.3465C48.9509 81.3768 48.7588 81.4819 48.6915 81.7713C48.6189 82.0837 48.6965 82.1546 49.1053 82.149C49.5859 82.1425 49.5925 82.155 49.2522 82.4287C48.9337 82.685 49.0793 82.7059 50.6301 82.6262C51.5839 82.5772 52.3633 82.4844 52.3622 82.42C52.3611 82.3557 52.5951 82.3246 52.8824 82.3509C54.1684 82.4687 56.1293 82.5816 56.854 82.5795C57.2895 82.578 57.606 82.6461 57.5572 82.7304C57.5085 82.8148 57.623 82.8925 57.8118 82.9032C58.5584 82.9456 58.7376 82.9761 59.0682 83.1169C59.257 83.1974 59.5828 83.5816 59.7922 83.9708C60.1787 84.6891 60.7981 85.0965 60.9153 84.7094C60.96 84.5614 61.0653 84.5661 61.2653 84.725C61.4466 84.869 61.5963 84.8822 61.6741 84.7609C61.8037 84.559 64.8591 84.4788 65.0607 84.672C65.1254 84.734 65.2768 84.6979 65.3971 84.5919C65.6293 84.3872 66.7729 84.3897 67.1229 84.5957C67.2376 84.6632 67.6235 84.6289 67.9804 84.5196C68.3374 84.4102 70.2009 84.2368 72.1217 84.1342C74.0424 84.0315 76.7206 83.8766 78.0732 83.7898C85.3635 83.322 87.5899 83.2157 92.1258 83.1187C95.689 83.0425 97.0956 82.9517 97.0917 82.7979C97.0878 82.6428 97.1564 82.6392 97.3395 82.7847C97.5953 82.9879 98.7366 83.0125 102.021 82.8857C103.01 82.8474 103.904 82.8212 104.009 82.8273C104.113 82.8334 105.138 82.8963 106.286 82.9671C107.434 83.0378 108.515 83.0477 108.687 82.9889C108.859 82.9301 109.046 82.9539 109.103 83.0417C109.16 83.1295 109.915 83.202 110.781 83.2029C111.647 83.2036 112.845 83.2788 113.444 83.3696C114.042 83.4603 115.621 83.545 116.954 83.5578C118.286 83.5706 119.974 83.5983 120.704 83.6195C121.434 83.6406 122.188 83.5708 122.381 83.4645C122.573 83.3582 122.685 83.3496 122.63 83.4453C122.573 83.5439 123.324 83.5919 124.362 83.5559C125.371 83.521 126.496 83.5874 126.864 83.7036C127.369 83.8631 127.565 83.8598 127.666 83.6903C127.758 83.5367 127.802 83.5322 127.808 83.6761C127.813 83.8055 128.344 83.8892 129.19 83.894C131.07 83.9044 136.79 83.7773 137.949 83.6992C138.469 83.6642 139.663 83.6694 140.602 83.7107C142.868 83.8103 146.383 83.7781 146.38 83.6577C146.376 83.5091 147.287 83.5535 148.807 83.776C149.57 83.8876 150.424 83.9119 150.704 83.8299C151.359 83.638 152.631 83.5578 152.635 83.7081C152.636 83.7718 152.872 83.8177 153.158 83.8101C158.455 83.6686 168.454 83.7702 168.791 83.9688C168.873 84.0167 168.937 83.9798 168.935 83.8867C168.933 83.7937 169.186 83.7487 169.499 83.7867C169.811 83.8248 170.215 83.7885 170.397 83.706C170.815 83.5161 171.571 83.4388 171.48 83.5951C171.443 83.66 172.877 83.6574 174.669 83.5894C176.46 83.5213 177.925 83.451 177.924 83.433C177.924 83.415 178.456 83.3696 179.106 83.3321C179.757 83.2946 180.29 83.3193 180.292 83.387C180.294 83.4548 180.592 83.4346 180.955 83.3421C181.318 83.2497 181.653 83.2335 181.7 83.3062C181.748 83.3789 182.558 83.4136 183.502 83.3834C184.524 83.3506 185.22 83.4055 185.225 83.5193C185.229 83.6319 185.287 83.6235 185.366 83.4989C185.532 83.2368 186.963 83.2135 187.16 83.4696C187.256 83.5946 187.303 83.5933 187.302 83.4659C187.302 83.3608 187.62 83.2767 188.011 83.2789C188.401 83.2811 188.917 83.2034 189.156 83.1061C189.415 83.0003 189.732 83.0012 189.943 83.1083C190.283 83.2809 191.078 83.334 195.168 83.4572C196.211 83.4886 197.919 83.5697 198.963 83.6375C200.007 83.7052 202.352 83.7335 204.175 83.7002C205.998 83.6669 207.832 83.6955 208.251 83.7637C208.669 83.8319 210.972 83.8533 213.368 83.8112C218.995 83.7124 223.23 83.7582 224.917 83.9361C225.656 84.014 227.243 84.1815 228.445 84.3084C229.647 84.4353 231.655 84.6118 232.908 84.7007C234.161 84.7896 235.57 84.8955 236.04 84.936C237.58 85.0689 239.147 84.993 240.413 84.7242C241.212 84.5547 243.64 84.4107 247.187 84.3226C250.227 84.247 252.774 84.148 252.846 84.1024C252.918 84.0568 256.128 83.8824 259.98 83.7149C263.832 83.5473 267.664 83.3522 268.496 83.2814C273.167 82.8836 276.713 82.7198 284.489 82.5428C285.582 82.5179 286.775 82.4629 287.139 82.4205C287.925 82.3289 291.566 82.0693 294.988 81.8609C302.384 81.4103 305.143 81.2652 310.127 81.0647C313.146 80.9432 315.914 80.7897 316.277 80.7234C316.64 80.6572 317.618 80.554 318.45 80.4941C319.99 80.3833 321.749 80.1284 321.975 79.983C322.044 79.9389 322.681 79.843 323.391 79.7699C324.101 79.6969 325.191 79.5423 325.813 79.4263C326.436 79.3104 327.2 79.1736 327.511 79.1224C327.822 79.0713 328.768 78.8305 329.613 78.5873C330.458 78.3442 331.327 78.1407 331.544 78.1351C331.761 78.1296 331.937 78.0534 331.935 77.9658C331.933 77.8783 332.037 77.803 332.167 77.7984C333.446 77.7539 336.502 77.3815 336.981 77.2117C337.315 77.0934 337.762 76.7369 337.974 76.4194C338.394 75.7924 339.528 75.15 340.575 74.9471C341.884 74.6934 344.151 74.4222 344.626 74.4625C344.893 74.4851 345.109 74.411 345.106 74.2976C345.103 74.1843 345.16 74.1482 345.232 74.2174C345.304 74.2866 345.537 74.1703 345.749 73.959C345.961 73.7477 346.702 73.2573 347.396 72.8693C348.408 72.304 348.926 72.1416 350.001 72.0524C351.421 71.9346 351.672 71.7645 351.512 71.0274C351.411 70.5577 350.648 70.1902 349.818 70.2115C349.579 70.2177 349.329 70.1381 349.262 70.0347C349.195 69.9313 348.851 69.8541 348.498 69.8632C347.501 69.8888 345.933 69.5399 345.932 69.2921C345.932 68.8846 347.363 68.35 348.773 68.2317C349.536 68.1676 351.31 68.0348 352.715 67.9366C355.551 67.7384 355.848 67.6788 355.989 67.2795C356.196 66.6907 353.545 64.7746 351.385 63.9517C350.688 63.6862 350.334 63.4146 350.091 62.9584C349.673 62.1755 349.855 61.7934 350.978 61.087C351.414 60.8129 351.768 60.4573 351.764 60.2966C351.76 60.1359 351.881 59.8723 352.033 59.7107C352.465 59.2524 352.347 58.7926 351.706 58.4324C351.382 58.2508 350.744 57.7633 350.286 57.3492C349.59 56.7186 349.303 56.5885 348.524 56.5496C347.839 56.5155 347.508 56.3941 347.267 56.0889C347.087 55.8611 346.979 55.6068 347.027 55.5237C347.075 55.4407 347.027 55.3751 346.92 55.3778C346.813 55.3807 346.622 55.1919 346.494 54.9587C346.366 54.7255 346.327 54.5934 346.407 54.6651C346.608 54.8438 347.117 54.2757 346.965 54.0424C346.895 53.9338 346.989 53.8919 347.188 53.9428C347.377 53.991 347.188 53.8682 346.764 53.6698C346.342 53.4714 345.726 53.3138 345.394 53.3196C345.062 53.3254 344.57 53.2519 344.3 53.1563C343.94 53.0285 343.81 53.0444 343.81 53.2166C343.81 53.3454 343.721 53.3058 343.613 53.1286C343.24 52.52 343.582 51.8435 344.519 51.3337C345.005 51.0695 345.53 50.6459 345.686 50.3924C345.841 50.1389 346.302 49.8214 346.709 49.687C348.225 49.1858 348.437 48.1897 347.102 47.8402C346.272 47.623 345.863 47.0156 346.096 46.3461C346.217 45.9977 346.211 45.8395 346.075 45.843C345.725 45.852 345.378 45.3846 345.387 44.9145C345.395 44.4496 345.38 44.4421 343.775 44.1111C343.513 44.0571 343.038 43.7942 342.718 43.527C342.399 43.2598 341.9 42.9242 341.61 42.7811C341.32 42.6381 341.079 42.3974 341.075 42.2462C341.066 41.8915 340.379 41.5418 339.56 41.4755C338.664 41.4031 338.294 41.1777 338.244 40.6737C338.202 40.2536 338.929 39.337 339.312 39.3272C339.546 39.3211 340.594 38.1957 340.588 37.9566C340.58 37.6297 339.892 37.4229 338.568 37.3492C337.846 37.309 336.826 37.1957 336.303 37.0973C335.436 36.9345 332.342 36.4848 331.636 36.4191C331.341 36.3916 331.196 35.7131 331.483 35.7057C331.569 35.7036 331.549 35.5433 331.44 35.3497C331.331 35.1561 331.3 34.9361 331.371 34.8609C331.608 34.6089 331.461 32.1844 331.192 31.9155C331.051 31.7752 330.544 31.6438 330.064 31.6235C329.29 31.5908 328.771 31.3039 328.941 31.0019C328.974 30.9435 328.879 30.7879 328.73 30.6562C328.582 30.5244 328.461 30.4802 328.463 30.5579C328.465 30.6356 328.364 30.6006 328.239 30.4802C328.072 30.3204 327.944 30.3196 327.765 30.4773C327.586 30.6351 327.365 30.6333 326.945 30.4706C325.979 30.0956 326.279 29.5126 327.578 29.2422C329.03 28.9398 329.353 28.8023 329.125 28.5835C329.063 28.5242 327.715 28.4812 326.129 28.4881C322.757 28.5028 322.367 28.3569 322.057 26.9621C321.957 26.511 321.665 25.8246 321.408 25.4367C320.984 24.796 320.649 23.9597 320.617 23.4658C320.611 23.3608 320.318 23.2547 319.967 23.2299C319.529 23.1989 319.296 23.0705 319.225 22.821C319.167 22.621 319.046 22.5063 318.955 22.5663C318.864 22.6262 318.788 22.5878 318.785 22.481C318.783 22.3741 318.389 22.0688 317.911 21.8025C316.555 21.0468 316.352 20.4073 317.341 19.9988C317.803 19.8078 317.822 19.6637 317.489 18.8634C317.245 18.2767 317.859 17.8816 319.888 17.3194C321.852 16.7751 322.4 16.4167 321.824 16.0511C321.467 15.824 318.901 16.1129 314.866 16.8344C313.037 17.1613 312.265 17.032 311.841 16.3282C311.418 15.6266 310.981 15.427 309.722 15.3589C308.678 15.3026 307.696 14.8068 307.684 14.3302C307.676 14.038 308.51 13.7406 309.477 13.6909C310.203 13.6536 311.056 13.1283 310.631 12.9801C310.497 12.9336 310.259 12.7714 310.1 12.6197C309.942 12.468 309.814 12.3951 309.815 12.4579C309.821 12.6889 308.655 11.9939 308.419 11.6255C308.124 11.1666 307.128 10.5491 306.735 10.5824C305.76 10.665 304.462 10.569 304.458 10.414C304.451 10.1178 305.428 9.24438 305.632 9.36462C305.735 9.42516 305.76 9.38286 305.687 9.27062C305.614 9.15839 305.642 9.00945 305.747 8.93964C305.853 8.86983 305.886 8.73026 305.821 8.62948C305.756 8.52869 305.805 8.31471 305.931 8.15395C306.288 7.69696 305.924 7.52363 304.476 7.46014C303.747 7.42818 302.765 7.32697 302.294 7.2352C301.822 7.14343 300.239 6.91354 298.775 6.72433C297.311 6.53513 295.635 6.22858 295.05 6.04311C294.453 5.85355 293.473 5.7191 292.814 5.73605C292.168 5.75264 291.019 5.60738 290.26 5.41328C288.957 5.08004 288.51 5.07549 282.255 5.33164C278.611 5.48084 274.906 5.65939 274.022 5.7284C271.718 5.90826 268.886 6.18777 268.497 6.27368C268.314 6.31417 266.099 6.45905 263.575 6.59564C259.966 6.79095 258.438 6.7943 256.422 6.61134C255.012 6.48338 252.42 6.36344 250.663 6.3448C248.906 6.32617 247.157 6.28074 246.776 6.24384C245.462 6.11651 240.953 5.92968 238.307 5.89291C236.848 5.87263 234.203 5.81216 232.43 5.75854C230.657 5.70493 227.075 5.66319 224.469 5.66581C221.864 5.66832 219.476 5.64882 219.162 5.62231C218.849 5.59576 216.708 5.56731 214.404 5.55907C212.101 5.5508 209.968 5.52016 209.665 5.49094C209.083 5.43472 207.648 5.37224 202.571 5.18195C198.586 5.03259 195.593 4.83393 193.122 4.55471C192.048 4.4333 190.843 4.34232 190.445 4.35255C190.048 4.36279 189.473 4.29676 189.168 4.20586C188.864 4.11496 188.076 4.0097 187.418 3.97193C186.759 3.93417 185.39 3.75414 184.376 3.57188C183.361 3.38962 182.019 3.20778 181.392 3.1678C180.766 3.12782 179.612 3.02802 178.829 2.946C178.045 2.86399 176.891 2.76685 176.265 2.73014C175.639 2.69342 174.199 2.55476 173.066 2.42198C171.932 2.2892 170.309 2.14746 169.457 2.107C168.606 2.06654 167.42 1.9815 166.821 1.918C166.222 1.85451 164.686 1.81216 163.408 1.82391C162.13 1.83566 160.443 1.78319 159.659 1.70731C158.112 1.55753 154.821 1.46189 152.264 1.49244C151.378 1.50303 150.268 1.44909 149.797 1.37259C149.326 1.2961 146.085 1.26115 142.595 1.29496C139.104 1.32875 136.064 1.32311 135.84 1.28243C135.615 1.24174 133.78 1.19272 131.763 1.17351C129.746 1.1543 127.668 1.12244 127.147 1.10272C126.625 1.08301 124.706 1.05269 122.881 1.03534C121.057 1.018 118.839 0.966339 117.952 0.92057C117.065 0.874802 116.254 0.862541 116.151 0.893318C116.048 0.924095 114.725 0.888046 113.212 0.813255C111.699 0.738441 109.608 0.651802 108.565 0.620728C107.522 0.589668 106.369 0.536705 106.004 0.503067C105.638 0.469421 104.187 0.416252 102.78 0.384888C101.373 0.353546 100.178 0.302277 100.124 0.270981C100.071 0.239662 98.9608 0.185959 97.6572 0.151619C96.3537 0.117287 95.1158 0.0590668 94.9064 0.0222626C94.523 -0.0451355 81.1031 0.0516815 75.298 0.163727C73.5792 0.196907 70.7259 0.323555 68.9573 0.445183L68.9574 0.445625ZM30.527 25.0788C30.6214 25.0827 30.5457 25.2653 30.3589 25.4845C30.068 25.8258 29.8287 25.8801 28.6962 25.8617C27.9685 25.8499 27.3408 25.7493 27.3013 25.638C27.1977 25.3467 28.5027 24.9879 29.5016 25.0331C29.9711 25.0543 30.4325 25.0749 30.527 25.0788ZM35.2585 35.3966C35.2596 35.443 35.1754 35.483 35.0713 35.4857C34.9671 35.4882 34.8796 35.3996 34.8768 35.2883C34.8739 35.1771 34.9582 35.137 35.064 35.1992C35.1698 35.2615 35.2573 35.3503 35.2585 35.3966ZM25.7448 41.3433C25.7459 41.3845 25.6157 41.4729 25.4557 41.5396C25.2888 41.6092 25.212 41.5791 25.2756 41.4691C25.3822 41.2848 25.7409 41.1886 25.7448 41.3433ZM28.0051 47.3772C27.8228 47.5693 27.8005 47.5479 27.8964 47.273C27.9627 47.0828 28.0659 46.9741 28.1257 47.0314C28.1855 47.0887 28.1312 47.2443 28.0051 47.3772ZM29.5779 49.6304C29.3956 49.8224 29.3733 49.801 29.4692 49.5262C29.5355 49.336 29.6387 49.2272 29.6985 49.2845C29.7583 49.3419 29.704 49.4975 29.5779 49.6304ZM28.1618 50.7626C28.1001 50.8693 28.012 50.9576 27.9661 50.9587C27.9201 50.9598 27.8804 50.8749 27.8777 50.7699C27.8752 50.6648 27.9632 50.5765 28.0735 50.5737C28.1838 50.5708 28.2235 50.6559 28.1618 50.7626ZM35.9072 59.6773C35.7719 59.736 35.6084 59.7334 35.5439 59.6715C35.4794 59.6097 35.5901 59.5616 35.7899 59.5648C36.0107 59.5684 36.0567 59.6124 35.9072 59.6773ZM35.8843 60.1784C35.6007 60.427 35.1518 61.1829 35.1573 61.4025C35.1591 61.4693 35.2875 61.4119 35.4429 61.275C35.811 60.9505 36.0344 61.168 35.7315 61.5558C35.4652 61.8968 34.9739 61.6448 34.9617 61.1609C34.9579 61.01 34.8883 60.9304 34.8071 60.9839C34.7259 61.0375 34.6428 60.9157 34.6225 60.7133C34.5979 60.4667 34.7068 60.3421 34.9526 60.3358C35.1545 60.3306 35.3174 60.2404 35.3148 60.1353C35.3123 60.0303 35.5018 59.9421 35.7362 59.9394C36.1019 59.9352 36.1229 59.9692 35.8843 60.1784ZM34.7585 60.6162C34.7595 60.6625 34.8471 60.7513 34.9529 60.8136C35.0587 60.8758 35.143 60.8357 35.1402 60.7245C35.1373 60.6132 35.0498 60.5244 34.9457 60.5271C34.8415 60.5296 34.7573 60.5698 34.7585 60.6162ZM38.2078 64.5048C38.2253 64.7408 38.1957 64.8271 38.142 64.6964C38.0884 64.5657 37.9687 64.5088 37.8761 64.5698C37.7835 64.6309 37.7551 64.5461 37.8131 64.3815C37.9664 63.9455 38.1711 64.0094 38.2078 64.5048ZM37.2376 64.6858C37.4498 65.0131 37.2195 65.0896 36.9518 64.7806C36.7979 64.6029 36.7807 64.4937 36.9063 64.4904C37.017 64.4876 37.1661 64.5755 37.2376 64.6858ZM43.5498 71.0844C43.5509 71.1257 43.4251 71.2122 43.2704 71.2767C43.1157 71.3412 42.987 71.3107 42.9845 71.209C42.982 71.1072 43.1076 71.0207 43.2638 71.0166C43.4201 71.0126 43.5487 71.0431 43.5498 71.0844ZM11.5874 20.9785C11.5899 21.0774 11.6785 21.2092 11.7842 21.2714C11.89 21.3337 11.9732 21.2506 11.9691 21.0868C11.9649 20.9231 11.8763 20.7912 11.7722 20.7939C11.668 20.7964 11.5849 20.8797 11.5874 20.9785ZM19.7041 36.4862C19.817 36.5943 20.0201 36.6424 20.1556 36.5929C20.2962 36.5416 20.2082 36.4572 19.9504 36.3963C19.6333 36.3213 19.56 36.348 19.7041 36.4862ZM22.3983 36.3847C22.2038 36.5187 22.1911 36.5835 22.3563 36.5979C22.7727 36.6343 22.8741 36.6619 23.1063 36.8026C23.2313 36.8784 23.3927 36.8381 23.4649 36.7132C23.547 36.5713 23.5155 36.5393 23.3811 36.6279C23.2536 36.712 23.1629 36.6485 23.1584 36.472C23.15 36.1361 22.8151 36.0976 22.3983 36.3847ZM21.4341 36.8397C21.581 36.9806 21.7195 36.9876 21.8396 36.8601C21.9596 36.7326 21.8835 36.6596 21.6164 36.6462C21.311 36.6309 21.266 36.6786 21.4341 36.8397ZM26.2703 39.6413C26.2744 39.8051 26.3617 39.8838 26.4642 39.8162C26.5667 39.7486 26.6485 39.6124 26.646 39.5135C26.6435 39.4147 26.5563 39.336 26.4521 39.3387C26.348 39.3412 26.2661 39.4775 26.2703 39.6413ZM26.5615 42.8283C26.8853 43.419 26.9181 43.4356 26.8731 42.9859C26.8512 42.7671 26.7203 42.5476 26.5823 42.4983C26.382 42.4266 26.3778 42.4931 26.5615 42.8283ZM27.8658 49.8068C27.7074 49.9113 27.7988 49.9989 28.1488 50.078C28.7833 50.2214 28.9046 50.1311 28.445 49.8577C28.2551 49.7448 27.9945 49.7219 27.8658 49.8068ZM32.0183 62.6291C32.0828 62.6909 32.2463 62.6935 32.3816 62.6348C32.5311 62.57 32.4851 62.5258 32.2643 62.5224C32.0645 62.5191 31.9538 62.5672 32.0183 62.6291ZM32.6057 63.3785C32.6702 63.4403 32.8337 63.4429 32.969 63.3842C33.1185 63.3194 33.0725 63.2753 32.8517 63.2718C32.6519 63.2685 32.5412 63.3166 32.6057 63.3785ZM36.0397 65.7391C36.0365 65.9407 36.0842 66.0523 36.1455 65.9873C36.2068 65.9222 36.2094 65.7573 36.1512 65.6208C36.0869 65.47 36.0432 65.5164 36.0397 65.7391ZM42.9207 76.186C42.7528 76.3016 42.7313 76.3773 42.8669 76.3756C42.991 76.3738 43.143 76.2854 43.2047 76.1787C43.344 75.9378 43.2785 75.9395 42.9207 76.186Z" fill="#E64699"/>
</svg>
